<svg xmlns="http://www.w3.org/2000/svg" width="64" height="64" viewBox="0 0 64 64">
  <rect width="64" height="64" rx="14" fill="#0F0F0F"/>
  <g transform="translate(32 32) scale(1.15)" fill="#C9A227">
    <path d="M0 0 C -1.4 -5, -9.5 -6.5, -9.5 -13 C -9.5 -17.4, -4 -19, -1.2 -16 C -0.5 -15.3, 0 -14.3, 0 -13.2 C 0 -14.3, 0.5 -15.3, 1.2 -16 C 4 -19, 9.5 -17.4, 9.5 -13 C 9.5 -6.5, 1.4 -5, 0 0 Z" transform="rotate(45)"/>
    <path d="M0 0 C -1.4 -5, -9.5 -6.5, -9.5 -13 C -9.5 -17.4, -4 -19, -1.2 -16 C -0.5 -15.3, 0 -14.3, 0 -13.2 C 0 -14.3, 0.5 -15.3, 1.2 -16 C 4 -19, 9.5 -17.4, 9.5 -13 C 9.5 -6.5, 1.4 -5, 0 0 Z" transform="rotate(135)"/>
    <path d="M0 0 C -1.4 -5, -9.5 -6.5, -9.5 -13 C -9.5 -17.4, -4 -19, -1.2 -16 C -0.5 -15.3, 0 -14.3, 0 -13.2 C 0 -14.3, 0.5 -15.3, 1.2 -16 C 4 -19, 9.5 -17.4, 9.5 -13 C 9.5 -6.5, 1.4 -5, 0 0 Z" transform="rotate(225)"/>
    <path d="M0 0 C -1.4 -5, -9.5 -6.5, -9.5 -13 C -9.5 -17.4, -4 -19, -1.2 -16 C -0.5 -15.3, 0 -14.3, 0 -13.2 C 0 -14.3, 0.5 -15.3, 1.2 -16 C 4 -19, 9.5 -17.4, 9.5 -13 C 9.5 -6.5, 1.4 -5, 0 0 Z" transform="rotate(315)"/>
  </g>
</svg>
